<svg width="39" height="40" viewBox="0 0 39 40" fill="none" xmlns="http://www.w3.org/2000/svg">
<path d="M19.0519 9.74451C13.6467 9.74451 9.28691 14.3233 9.28691 20C9.28691 25.6767 13.6467 30.2555 19.0519 30.2555C24.457 30.2555 28.8168 25.6767 28.8168 20C28.8168 14.3233 24.457 9.74451 19.0519 9.74451ZM19.0519 26.6674C15.5589 26.6674 12.7034 23.6773 12.7034 20C12.7034 16.3227 15.5504 13.3326 19.0519 13.3326C22.5533 13.3326 25.4004 16.3227 25.4004 20C25.4004 23.6773 22.5448 26.6674 19.0519 26.6674V26.6674ZM31.4939 9.325C31.4939 10.6549 30.4741 11.7171 29.2163 11.7171C27.95 11.7171 26.9386 10.646 26.9386 9.325C26.9386 8.00402 27.9585 6.93295 29.2163 6.93295C30.4741 6.93295 31.4939 8.00402 31.4939 9.325ZM37.9614 11.7528C37.8169 8.54848 37.12 5.71014 34.8849 3.37164C32.6582 1.03314 29.9556 0.301238 26.9046 0.140578C23.7601 -0.0468593 14.3351 -0.0468593 11.1906 0.140578C8.14809 0.292313 5.44552 1.02421 3.21037 3.36271C0.975221 5.70122 0.28683 8.53955 0.133854 11.7438C-0.044618 15.0463 -0.044618 24.9448 0.133854 28.2472C0.278331 31.4515 0.975221 34.2899 3.21037 36.6284C5.44552 38.9669 8.13959 39.6988 11.1906 39.8594C14.3351 40.0469 23.7601 40.0469 26.9046 39.8594C29.9556 39.7077 32.6582 38.9758 34.8849 36.6284C37.1115 34.2899 37.8084 31.4515 37.9614 28.2472C38.1399 24.9448 38.1399 15.0552 37.9614 11.7528V11.7528ZM33.899 31.7907C33.2361 33.5401 31.9528 34.8879 30.2786 35.593C27.7715 36.6373 21.8224 36.3963 19.0519 36.3963C16.2813 36.3963 10.3237 36.6284 7.82514 35.593C6.1594 34.8968 4.87611 33.549 4.20471 31.7907C3.21037 29.1576 3.43983 22.9097 3.43983 20C3.43983 17.0903 3.21887 10.8334 4.20471 8.20931C4.86761 6.45989 6.1509 5.11213 7.82514 4.40701C10.3322 3.36271 16.2813 3.6037 19.0519 3.6037C21.8224 3.6037 27.78 3.37164 30.2786 4.40701C31.9443 5.1032 33.2276 6.45097 33.899 8.20931C34.8934 10.8424 34.6639 17.0903 34.6639 20C34.6639 22.9097 34.8934 29.1666 33.899 31.7907Z" fill="#000"/>
</svg>
