<svg width="161" height="60" viewBox="0 0 161 60" fill="none" xmlns="http://www.w3.org/2000/svg">
<path d="M11.445 45.28C8.34167 45.28 5.85667 44.6967 3.99 43.53C2.12333 42.34 1.19 40.5317 1.19 38.105C1.19 36.8217 1.41167 35.8417 1.855 35.165C2.29833 34.4883 2.95167 34.15 3.815 34.15C4.445 34.15 4.95833 34.3133 5.355 34.64C5.75167 34.9667 5.95 35.3867 5.95 35.9C5.95 36.3667 5.915 36.775 5.845 37.125C5.845 37.2183 5.82167 37.3817 5.775 37.615C5.75167 37.8483 5.74 38.0933 5.74 38.35C5.74 39.4 6.265 40.1817 7.315 40.695C8.38833 41.2083 9.88167 41.465 11.795 41.465C13.7783 41.465 15.33 41.115 16.45 40.415C17.57 39.6917 18.13 38.6883 18.13 37.405C18.13 36.6117 17.8733 35.935 17.36 35.375C16.8467 34.7917 16.205 34.3133 15.435 33.94C14.665 33.5433 13.58 33.065 12.18 32.505C10.3833 31.805 8.91333 31.14 7.77 30.51C6.65 29.88 5.68167 29.0283 4.865 27.955C4.07167 26.8583 3.675 25.505 3.675 23.895C3.675 22.215 4.11833 20.7217 5.005 19.415C5.915 18.1083 7.21 17.0933 8.89 16.37C10.5933 15.6467 12.5883 15.285 14.875 15.285C16.5783 15.285 18.1417 15.5417 19.565 16.055C20.9883 16.545 22.12 17.3033 22.96 18.33C23.8233 19.3567 24.255 20.6167 24.255 22.11C24.255 23.58 24.0333 24.6883 23.59 25.435C23.1467 26.1817 22.4933 26.555 21.63 26.555C21.0233 26.555 20.51 26.3683 20.09 25.995C19.6933 25.6217 19.495 25.1783 19.495 24.665C19.495 24.2217 19.53 23.8133 19.6 23.44C19.67 22.74 19.705 22.2967 19.705 22.11C19.705 21.13 19.2267 20.3833 18.27 19.87C17.3133 19.3567 16.1233 19.1 14.7 19.1C12.6933 19.1 11.1533 19.4733 10.08 20.22C9.03 20.9433 8.505 21.97 8.505 23.3C8.505 24.1867 8.77333 24.945 9.31 25.575C9.87 26.205 10.5583 26.73 11.375 27.15C12.1917 27.57 13.335 28.0717 14.805 28.655C16.5783 29.3783 18.0017 30.0317 19.075 30.615C20.1483 31.1983 21.0583 31.9917 21.805 32.995C22.575 33.9983 22.96 35.235 22.96 36.705C22.96 39.4583 21.91 41.5817 19.81 43.075C17.7333 44.545 14.945 45.28 11.445 45.28ZM29.3467 45.175C28.2967 45.175 27.4333 44.6967 26.7567 43.74C26.1033 42.76 25.7767 41.5467 25.7767 40.1C25.7767 38.35 25.8933 36.7517 26.1267 35.305C26.36 33.835 26.745 32.2833 27.2817 30.65C27.515 29.95 27.8417 29.4483 28.2617 29.145C28.6817 28.8417 29.3467 28.69 30.2567 28.69C30.77 28.69 31.12 28.7717 31.3067 28.935C31.5167 29.0983 31.6217 29.3433 31.6217 29.67C31.6217 29.8567 31.4933 30.4867 31.2367 31.56C31.0033 32.4233 30.8167 33.205 30.6767 33.905C30.21 36.355 29.9767 37.9883 29.9767 38.805C29.9767 39.295 30.035 39.645 30.1517 39.855C30.2683 40.0417 30.455 40.135 30.7117 40.135C31.0617 40.135 31.4933 39.785 32.0067 39.085C32.5433 38.385 33.1033 37.3233 33.6867 35.9C34.2933 34.4767 34.8767 32.7267 35.4367 30.65C35.6233 29.95 35.9033 29.4483 36.2767 29.145C36.6733 28.8417 37.2567 28.69 38.0267 28.69C38.5633 28.69 38.9367 28.76 39.1467 28.9C39.3567 29.0167 39.4617 29.25 39.4617 29.6C39.4617 30.1833 39.17 31.7817 38.5867 34.395C37.9333 37.3817 37.6067 39.225 37.6067 39.925C37.6067 40.3683 37.7 40.7183 37.8867 40.975C38.0733 41.2083 38.3183 41.325 38.6217 41.325C39.0883 41.325 39.6367 41.045 40.2667 40.485C40.92 39.9017 41.7833 38.9683 42.8567 37.685C43.1367 37.3583 43.4517 37.195 43.8017 37.195C44.105 37.195 44.3383 37.335 44.5017 37.615C44.6883 37.895 44.7817 38.28 44.7817 38.77C44.7817 39.7033 44.56 40.4267 44.1167 40.94C43.1133 42.1767 42.0283 43.1917 40.8617 43.985C39.7183 44.7783 38.4117 45.175 36.9417 45.175C35.8217 45.175 34.9933 44.7433 34.4567 43.88C33.9433 43.0167 33.6867 41.8033 33.6867 40.24C33.29 41.8267 32.695 43.0517 31.9017 43.915C31.1083 44.755 30.2567 45.175 29.3467 45.175ZM44.4287 45.175C43.542 45.175 42.912 44.7083 42.5387 43.775C42.1887 42.8417 42.0137 41.3483 42.0137 39.295C42.0137 36.2617 42.4453 33.38 43.3087 30.65C43.5187 29.9733 43.857 29.4833 44.3237 29.18C44.8137 28.8533 45.4903 28.69 46.3537 28.69C46.8203 28.69 47.147 28.7483 47.3337 28.865C47.5203 28.9817 47.6137 29.2033 47.6137 29.53C47.6137 29.9033 47.4387 30.7433 47.0887 32.05C46.8553 32.9833 46.6687 33.8 46.5287 34.5C46.3887 35.2 46.272 36.0633 46.1787 37.09C46.9487 35.0833 47.812 33.45 48.7687 32.19C49.7253 30.93 50.6587 30.0317 51.5687 29.495C52.502 28.9583 53.3537 28.69 54.1237 28.69C55.6403 28.69 56.3987 29.4483 56.3987 30.965C56.3987 31.2683 56.2937 32.0033 56.0837 33.17C55.897 34.1033 55.8037 34.6867 55.8037 34.92C55.8037 35.7367 56.0953 36.145 56.6787 36.145C57.332 36.145 58.172 35.6317 59.1987 34.605C59.502 34.3017 59.817 34.15 60.1437 34.15C60.447 34.15 60.6803 34.29 60.8437 34.57C61.0303 34.8267 61.1237 35.1767 61.1237 35.62C61.1237 36.4833 60.8903 37.16 60.4237 37.65C59.7703 38.3267 59.0003 38.91 58.1137 39.4C57.2503 39.8667 56.3287 40.1 55.3487 40.1C54.112 40.1 53.167 39.785 52.5137 39.155C51.8837 38.525 51.5687 37.6733 51.5687 36.6C51.5687 36.25 51.6037 35.9 51.6737 35.55C51.7203 35.0833 51.7437 34.7683 51.7437 34.605C51.7437 34.2317 51.6153 34.045 51.3587 34.045C51.0087 34.045 50.542 34.4417 49.9587 35.235C49.3987 36.005 48.8387 37.0317 48.2787 38.315C47.7187 39.5983 47.2637 40.9517 46.9137 42.375C46.657 43.4717 46.3537 44.2183 46.0037 44.615C45.677 44.9883 45.152 45.175 44.4287 45.175ZM71.8364 35.2C72.4897 35.2 72.8164 35.69 72.8164 36.67C72.8164 38.5133 71.3697 39.435 68.4764 39.435C67.9164 39.435 67.1114 39.33 66.0614 39.12C66.3647 40.5667 66.6097 42.1767 66.7964 43.95C67.0064 45.7 67.1114 47.1467 67.1114 48.29C67.1114 50.81 66.7031 52.735 65.8864 54.065C65.0697 55.395 63.9964 56.06 62.6664 56.06C60.9864 56.06 59.7847 54.87 59.0614 52.49C58.3614 50.11 58.0114 46.5167 58.0114 41.71C58.0114 37.23 58.4897 32.6917 59.4464 28.095C60.4264 23.475 61.7564 19.66 63.4364 16.65C65.1397 13.6167 67.0064 12.1 69.0364 12.1C70.1331 12.1 70.9847 12.59 71.5914 13.57C72.2214 14.55 72.5364 15.8683 72.5364 17.525C72.5364 23.0083 69.2581 28.9817 62.7014 35.445C62.4681 37.7317 62.3514 39.7383 62.3514 41.465C62.3514 43.8683 62.4331 46.33 62.5964 48.85C62.7597 51.3933 63.0281 52.665 63.4014 52.665C64.1014 52.665 64.4514 51.4517 64.4514 49.025C64.4514 47.205 64.3231 45.4433 64.0664 43.74C63.8331 42.0367 63.5064 40.24 63.0864 38.35C63.0631 38.0467 63.1564 37.6617 63.3664 37.195C63.5997 36.7283 63.8797 36.32 64.2064 35.97C64.5331 35.62 64.8247 35.445 65.0814 35.445C65.5481 35.445 66.1081 35.4683 66.7614 35.515C66.9714 35.5383 67.2164 35.55 67.4964 35.55C68.4297 35.55 69.4681 35.4683 70.6114 35.305C70.7981 35.2817 70.9964 35.2583 71.2064 35.235C71.4164 35.2117 71.6264 35.2 71.8364 35.2ZM68.3014 15.565C67.8814 15.565 67.3564 16.2767 66.7264 17.7C66.1197 19.1233 65.5131 21.0133 64.9064 23.37C64.2997 25.7033 63.7747 28.1767 63.3314 30.79C65.1981 28.6667 66.6331 26.4617 67.6364 24.175C68.6397 21.865 69.1531 19.7067 69.1764 17.7C69.1764 16.2767 68.8847 15.565 68.3014 15.565ZM80.6247 45.28C77.5214 45.28 75.0364 44.6967 73.1697 43.53C71.303 42.34 70.3697 40.5317 70.3697 38.105C70.3697 36.8217 70.5914 35.8417 71.0347 35.165C71.478 34.4883 72.1314 34.15 72.9947 34.15C73.6247 34.15 74.138 34.3133 74.5347 34.64C74.9314 34.9667 75.1297 35.3867 75.1297 35.9C75.1297 36.3667 75.0947 36.775 75.0247 37.125C75.0247 37.2183 75.0014 37.3817 74.9547 37.615C74.9314 37.8483 74.9197 38.0933 74.9197 38.35C74.9197 39.4 75.4447 40.1817 76.4947 40.695C77.568 41.2083 79.0614 41.465 80.9747 41.465C82.958 41.465 84.5097 41.115 85.6297 40.415C86.7497 39.6917 87.3097 38.6883 87.3097 37.405C87.3097 36.6117 87.053 35.935 86.5397 35.375C86.0264 34.7917 85.3847 34.3133 84.6147 33.94C83.8447 33.5433 82.7597 33.065 81.3597 32.505C79.563 31.805 78.093 31.14 76.9497 30.51C75.8297 29.88 74.8614 29.0283 74.0447 27.955C73.2514 26.8583 72.8547 25.505 72.8547 23.895C72.8547 22.215 73.298 20.7217 74.1847 19.415C75.0947 18.1083 76.3897 17.0933 78.0697 16.37C79.773 15.6467 81.768 15.285 84.0547 15.285C85.758 15.285 87.3214 15.5417 88.7447 16.055C90.168 16.545 91.2997 17.3033 92.1397 18.33C93.003 19.3567 93.4347 20.6167 93.4347 22.11C93.4347 23.58 93.213 24.6883 92.7697 25.435C92.3264 26.1817 91.673 26.555 90.8097 26.555C90.203 26.555 89.6897 26.3683 89.2697 25.995C88.873 25.6217 88.6747 25.1783 88.6747 24.665C88.6747 24.2217 88.7097 23.8133 88.7797 23.44C88.8497 22.74 88.8847 22.2967 88.8847 22.11C88.8847 21.13 88.4064 20.3833 87.4497 19.87C86.493 19.3567 85.303 19.1 83.8797 19.1C81.873 19.1 80.333 19.4733 79.2597 20.22C78.2097 20.9433 77.6847 21.97 77.6847 23.3C77.6847 24.1867 77.953 24.945 78.4897 25.575C79.0497 26.205 79.738 26.73 80.5547 27.15C81.3714 27.57 82.5147 28.0717 83.9847 28.655C85.758 29.3783 87.1814 30.0317 88.2547 30.615C89.328 31.1983 90.238 31.9917 90.9847 32.995C91.7547 33.9983 92.1397 35.235 92.1397 36.705C92.1397 39.4583 91.0897 41.5817 88.9897 43.075C86.913 44.545 84.1247 45.28 80.6247 45.28ZM115.015 37.195C115.319 37.195 115.552 37.335 115.715 37.615C115.902 37.895 115.995 38.28 115.995 38.77C115.995 39.7033 115.774 40.4267 115.33 40.94C114.28 42.2233 113.219 43.25 112.145 44.02C111.072 44.79 109.8 45.175 108.33 45.175C106.534 45.175 105.087 44.6617 103.99 43.635C102.894 42.6083 102.345 41.2433 102.345 39.54C102.345 38.63 102.812 37.9767 103.745 37.58C104.772 37.1367 105.507 36.67 105.95 36.18C106.394 35.6667 106.615 35.0483 106.615 34.325C106.615 33.905 106.522 33.59 106.335 33.38C106.172 33.17 105.962 33.065 105.705 33.065C105.075 33.065 104.375 33.52 103.605 34.43C102.859 35.34 102.159 36.5183 101.505 37.965C100.852 39.3883 100.339 40.8583 99.9655 42.375C99.7088 43.4717 99.4055 44.2183 99.0555 44.615C98.7288 44.9883 98.2038 45.175 97.4805 45.175C96.7571 45.175 96.2205 44.9183 95.8705 44.405C95.5438 43.8683 95.3221 43.0517 95.2055 41.955C95.0888 40.8583 95.0305 39.2483 95.0305 37.125C95.0305 33.5317 95.3921 29.7867 96.1155 25.89C96.8621 21.9933 97.9471 18.7267 99.3705 16.09C100.817 13.43 102.544 12.1 104.55 12.1C105.624 12.1 106.487 12.5667 107.14 13.5C107.817 14.41 108.155 15.6 108.155 17.07C108.155 19.4267 107.467 21.8767 106.09 24.42C104.714 26.94 102.474 29.8917 99.3705 33.275C99.3005 34.4883 99.2655 35.7367 99.2655 37.02C100.385 34.1033 101.669 31.9917 103.115 30.685C104.562 29.355 105.915 28.69 107.175 28.69C108.342 28.69 109.275 29.0867 109.975 29.88C110.699 30.6733 111.06 31.6533 111.06 32.82C111.06 34.1033 110.734 35.2817 110.08 36.355C109.427 37.4283 108.307 38.385 106.72 39.225C106.814 39.855 107.094 40.3683 107.56 40.765C108.05 41.1383 108.634 41.325 109.31 41.325C110.034 41.325 110.734 41.045 111.41 40.485C112.087 39.925 112.974 38.9917 114.07 37.685C114.35 37.3583 114.665 37.195 115.015 37.195ZM103.815 15.565C103.395 15.565 102.929 16.1717 102.415 17.385C101.902 18.575 101.4 20.1967 100.91 22.25C100.444 24.28 100.059 26.4967 99.7555 28.9C101.202 27.1967 102.392 25.3417 103.325 23.335C104.282 21.3283 104.76 19.5083 104.76 17.875C104.76 17.1283 104.679 16.5567 104.515 16.16C104.352 15.7633 104.119 15.565 103.815 15.565ZM117.479 45.175C116.032 45.175 114.877 44.65 114.014 43.6C113.151 42.55 112.719 41.1733 112.719 39.47C112.719 37.6033 113.151 35.8417 114.014 34.185C114.877 32.505 116.021 31.1633 117.444 30.16C118.891 29.1333 120.419 28.62 122.029 28.62C122.542 28.62 122.881 28.725 123.044 28.935C123.231 29.1217 123.382 29.4717 123.499 29.985C123.989 29.8917 124.502 29.845 125.039 29.845C126.182 29.845 126.754 30.2533 126.754 31.07C126.754 31.56 126.579 32.7267 126.229 34.57C125.692 37.2533 125.424 39.12 125.424 40.17C125.424 40.52 125.506 40.8 125.669 41.01C125.856 41.22 126.089 41.325 126.369 41.325C126.812 41.325 127.349 41.045 127.979 40.485C128.609 39.9017 129.461 38.9683 130.534 37.685C130.814 37.3583 131.129 37.195 131.479 37.195C131.782 37.195 132.016 37.335 132.179 37.615C132.366 37.895 132.459 38.28 132.459 38.77C132.459 39.7033 132.237 40.4267 131.794 40.94C130.837 42.13 129.822 43.1333 128.749 43.95C127.676 44.7667 126.637 45.175 125.634 45.175C124.864 45.175 124.152 44.9183 123.499 44.405C122.869 43.8683 122.391 43.145 122.064 42.235C120.851 44.195 119.322 45.175 117.479 45.175ZM118.739 41.64C119.252 41.64 119.742 41.3367 120.209 40.73C120.676 40.1233 121.014 39.3183 121.224 38.315L122.519 31.875C121.539 31.8983 120.629 32.2717 119.789 32.995C118.972 33.695 118.319 34.6283 117.829 35.795C117.339 36.9617 117.094 38.1983 117.094 39.505C117.094 40.2283 117.234 40.765 117.514 41.115C117.817 41.465 118.226 41.64 118.739 41.64ZM145.225 37.195C145.528 37.195 145.761 37.335 145.925 37.615C146.111 37.895 146.205 38.28 146.205 38.77C146.205 39.7033 145.983 40.4267 145.54 40.94C144.536 42.1767 143.44 43.1917 142.25 43.985C141.06 44.7783 139.695 45.175 138.155 45.175C133.395 45.175 131.015 41.8267 131.015 35.13C131.015 34.1033 131.05 33.065 131.12 32.015H129.755C129.055 32.015 128.576 31.8867 128.32 31.63C128.086 31.3733 127.97 30.965 127.97 30.405C127.97 29.0983 128.495 28.445 129.545 28.445H131.54C131.936 25.8783 132.543 23.5333 133.36 21.41C134.176 19.2867 135.156 17.595 136.3 16.335C137.466 15.075 138.715 14.445 140.045 14.445C141.025 14.445 141.795 14.8767 142.355 15.74C142.915 16.6033 143.195 17.6883 143.195 18.995C143.195 22.6117 141.678 25.7617 138.645 28.445H142.565C142.938 28.445 143.206 28.5267 143.37 28.69C143.533 28.8533 143.615 29.1567 143.615 29.6C143.615 31.21 142.296 32.015 139.66 32.015H135.39C135.343 33.1817 135.32 34.0917 135.32 34.745C135.32 37.1717 135.6 38.875 136.16 39.855C136.743 40.835 137.653 41.325 138.89 41.325C139.893 41.325 140.78 41.0217 141.55 40.415C142.32 39.8083 143.23 38.8983 144.28 37.685C144.56 37.3583 144.875 37.195 145.225 37.195ZM139.1 17.805C138.75 17.805 138.353 18.2483 137.91 19.135C137.49 19.9983 137.081 21.2117 136.685 22.775C136.311 24.315 135.996 26.03 135.74 27.92C137.116 26.73 138.143 25.4 138.82 23.93C139.52 22.4367 139.87 21.0833 139.87 19.87C139.87 18.4933 139.613 17.805 139.1 17.805ZM155.885 38.245C156.188 38.245 156.421 38.385 156.585 38.665C156.771 38.945 156.865 39.33 156.865 39.82C156.865 40.66 156.666 41.3833 156.27 41.99C155.616 42.9933 154.753 43.775 153.68 44.335C152.63 44.895 151.37 45.175 149.9 45.175C147.66 45.175 145.921 44.51 144.685 43.18C143.448 41.8267 142.83 40.0067 142.83 37.72C142.83 36.11 143.168 34.6167 143.845 33.24C144.521 31.84 145.455 30.7317 146.645 29.915C147.858 29.0983 149.223 28.69 150.74 28.69C152.093 28.69 153.178 29.0983 153.995 29.915C154.811 30.7083 155.22 31.7933 155.22 33.17C155.22 34.78 154.636 36.1683 153.47 37.335C152.326 38.4783 150.366 39.3883 147.59 40.065C148.15 41.1383 149.095 41.675 150.425 41.675C151.381 41.675 152.163 41.4533 152.77 41.01C153.4 40.5667 154.123 39.82 154.94 38.77C155.22 38.42 155.535 38.245 155.885 38.245ZM150.145 32.12C149.281 32.12 148.546 32.6217 147.94 33.625C147.356 34.6283 147.065 35.8417 147.065 37.265V37.335C148.441 37.0083 149.526 36.5183 150.32 35.865C151.113 35.2117 151.51 34.4533 151.51 33.59C151.51 33.1467 151.381 32.7967 151.125 32.54C150.891 32.26 150.565 32.12 150.145 32.12Z" fill="black"/>
<path d="M0.48 59L5.22 47.705H5.31L10.05 59H8.37L7.245 56.15H3.075L1.92 59H0.48ZM3.585 54.89H6.75L5.205 50.945L3.585 54.89ZM32.2816 58.19C32.1016 58.31 31.8566 58.445 31.5466 58.595C31.2366 58.745 30.8716 58.875 30.4516 58.985C30.0416 59.085 29.5916 59.13 29.1016 59.12C28.2516 59.11 27.4916 58.96 26.8216 58.67C26.1516 58.38 25.5766 57.985 25.0966 57.485C24.6266 56.975 24.2666 56.395 24.0166 55.745C23.7666 55.095 23.6416 54.4 23.6416 53.66C23.6416 52.85 23.7716 52.105 24.0316 51.425C24.3016 50.735 24.6766 50.14 25.1566 49.64C25.6366 49.13 26.2016 48.735 26.8516 48.455C27.5116 48.175 28.2316 48.035 29.0116 48.035C29.6616 48.035 30.2516 48.125 30.7816 48.305C31.3116 48.475 31.7666 48.675 32.1466 48.905L31.5616 50.27C31.2616 50.07 30.8966 49.88 30.4666 49.7C30.0366 49.52 29.5666 49.43 29.0566 49.43C28.5266 49.43 28.0266 49.54 27.5566 49.76C27.0866 49.97 26.6716 50.265 26.3116 50.645C25.9516 51.015 25.6666 51.455 25.4566 51.965C25.2566 52.465 25.1566 53.005 25.1566 53.585C25.1566 54.365 25.3166 55.07 25.6366 55.7C25.9666 56.32 26.4266 56.81 27.0166 57.17C27.6166 57.53 28.3166 57.71 29.1166 57.71C29.6766 57.71 30.1666 57.63 30.5866 57.47C31.0166 57.3 31.3716 57.105 31.6516 56.885L32.2816 58.19ZM46.4767 59L51.2167 47.705H51.3067L56.0467 59H54.3667L53.2417 56.15H49.0717L47.9167 59H46.4767ZM49.5817 54.89H52.7467L51.2017 50.945L49.5817 54.89ZM70.8993 59V48.155H73.8693C74.9393 48.155 75.8493 48.32 76.5993 48.65C77.3493 48.97 77.9543 49.4 78.4143 49.94C78.8843 50.48 79.2243 51.08 79.4343 51.74C79.6543 52.39 79.7643 53.045 79.7643 53.705C79.7643 54.515 79.6193 55.25 79.3293 55.91C79.0393 56.56 78.6443 57.115 78.1443 57.575C77.6443 58.035 77.0693 58.39 76.4193 58.64C75.7793 58.88 75.1043 59 74.3943 59H70.8993ZM72.3543 57.59H74.1093C74.8993 57.59 75.6043 57.435 76.2243 57.125C76.8543 56.815 77.3493 56.365 77.7093 55.775C78.0693 55.175 78.2493 54.45 78.2493 53.6C78.2493 52.72 78.0593 51.98 77.6793 51.38C77.3093 50.78 76.8143 50.325 76.1943 50.015C75.5843 49.705 74.9343 49.55 74.2443 49.55H72.3543V57.59ZM95.0329 48.155H102.083V49.55H96.4879V52.85H101.483V54.245H96.4879V57.59H102.293V59H95.0329V48.155ZM117.658 59V47.81H117.673L123.013 55.385L128.428 47.81H128.443V59H127.003V51.995L123.013 57.635H122.983L119.068 52.19V59H117.658ZM147.264 55.385L143.244 48.155H145.044L148.029 53.735L150.999 48.155H152.784L148.719 55.385V59H147.264V55.385Z" fill="black"/>
<path d="M26.765 15.155H33.965V16.55H31.055V26H29.6V16.55H26.765V15.155ZM44.8855 15.155V26H43.4155V21.245H37.7455V26H36.2905V15.155H37.7455V19.85H43.4155V15.155H44.8855ZM48.0092 15.155H55.0592V16.55H49.4642V19.85H54.4592V21.245H49.4642V24.59H55.2692V26H48.0092V15.155Z" fill="black"/>
</svg>
